<svg width="20" height="20" viewBox="0 0 20 20" fill="none" xmlns="http://www.w3.org/2000/svg">
<g clip-path="url(#clip0_27_71)">
<circle cx="10" cy="10" r="10" fill="#45AF43"/>
<path d="M14.1751 6.53056C13.8251 5.84065 13.3073 5.24978 12.6693 4.81226C12.0313 4.37475 11.2935 4.10462 10.5238 4.02671C10.1755 3.99175 9.8245 3.99175 9.47614 4.02671C8.7065 4.10475 7.9688 4.37492 7.33082 4.81242C6.69283 5.24993 6.17501 5.84073 5.82491 6.53056C5.3844 7.4108 5.2142 8.4017 5.33576 9.37847C5.45731 10.3552 5.86517 11.2742 6.50799 12.0196L9.64368 15.8319C9.68698 15.8845 9.74138 15.9269 9.80298 15.956C9.86459 15.985 9.93186 16.0001 9.99999 16.0001C10.0681 16.0001 10.1354 15.985 10.197 15.956C10.2586 15.9269 10.313 15.8845 10.3563 15.8319L13.4915 12.0196C14.1344 11.2743 14.5424 10.3553 14.664 9.37854C14.7856 8.40177 14.6155 7.41084 14.1751 6.53056ZM9.99999 10.4615C9.63485 10.4615 9.27792 10.3532 8.97432 10.1504C8.67072 9.94749 8.43409 9.65916 8.29436 9.32182C8.15463 8.98448 8.11807 8.61328 8.18931 8.25516C8.26054 7.89704 8.43637 7.56809 8.69456 7.3099C8.95275 7.05171 9.2817 6.87588 9.63982 6.80465C9.99794 6.73341 10.3691 6.76997 10.7065 6.90971C11.0438 7.04944 11.3321 7.28606 11.535 7.58966C11.7379 7.89326 11.8461 8.25019 11.8461 8.61533C11.8455 9.10477 11.6508 9.57399 11.3047 9.92008C10.9587 10.2662 10.4894 10.4609 9.99999 10.4615Z" fill="white"/>
</g>
<defs>
<clipPath id="clip0_27_71">
<rect width="20" height="20" fill="white"/>
</clipPath>
</defs>
</svg>
