<svg width="20" height="20" viewBox="0 0 20 20" fill="none" xmlns="http://www.w3.org/2000/svg">
<g clip-path="url(#clip0_27_55)">
<circle cx="10" cy="10" r="10" fill="#45AF43"/>
<path d="M15.9776 6.4558C15.9255 6.10734 15.7502 5.7891 15.4836 5.55875C15.217 5.3284 14.8767 5.2012 14.5244 5.2002H5.4756C5.12327 5.2012 4.78296 5.3284 4.51636 5.55875C4.24977 5.7891 4.07452 6.10734 4.0224 6.4558L10 10.3238L15.9776 6.4558Z" fill="white"/>
<path d="M10.2172 11.136C10.1525 11.1779 10.0771 11.2002 10 11.2002C9.92294 11.2002 9.84751 11.1779 9.7828 11.136L4 7.39444V13.3244C4.00042 13.7157 4.15602 14.0907 4.43266 14.3674C4.7093 14.644 5.08438 14.7996 5.4756 14.8H14.5244C14.9156 14.7996 15.2907 14.644 15.5673 14.3674C15.844 14.0907 15.9996 13.7157 16 13.3244V7.39404L10.2172 11.136Z" fill="white"/>
</g>
<defs>
<clipPath id="clip0_27_55">
<rect width="20" height="20" fill="white"/>
</clipPath>
</defs>
</svg>
