<svg width="20" height="20" viewBox="0 0 20 20" fill="none" xmlns="http://www.w3.org/2000/svg">
<g clip-path="url(#clip0_27_65)">
<circle cx="10" cy="10" r="10" fill="#45AF43"/>
<path d="M15.614 12.64C15.5812 12.614 13.2 10.8976 12.5464 11.0208C12.2344 11.076 12.056 11.2888 11.698 11.7148C11.6404 11.7836 11.502 11.9484 11.3944 12.0656C11.1682 11.9918 10.9475 11.902 10.734 11.7968C9.63221 11.2604 8.742 10.3702 8.2056 9.2684C8.10035 9.05497 8.01052 8.83427 7.9368 8.608C8.0544 8.5 8.2192 8.3616 8.2896 8.3024C8.7136 7.9464 8.9268 7.768 8.982 7.4552C9.0952 6.8072 7.38 4.4096 7.362 4.388C7.28418 4.27683 7.18262 4.18435 7.06467 4.11724C6.94672 4.05014 6.81533 4.01009 6.68 4C5.9848 4 4 6.5748 4 7.0084C4 7.0336 4.0364 9.5952 7.1952 12.8084C10.4052 15.9636 12.9664 16 12.9916 16C13.4256 16 16 14.0152 16 13.32C15.99 13.1851 15.9502 13.0542 15.8835 12.9366C15.8167 12.819 15.7247 12.7177 15.614 12.64Z" fill="white"/>
</g>
<defs>
<clipPath id="clip0_27_65">
<rect width="20" height="20" fill="white"/>
</clipPath>
</defs>
</svg>
